PathFileType	4	(X/Y/Z)	/Users/itak/Documents/Research/Walk-IL/dataset/trc/00105_00007.trc
DataRate	CameraRate	NumFrames	NumMarkers	Units	OrigDataRate	OrigDataStartFrame	OrigNumFrames
100.000000	100.000000	4	53	mm	100.000000	134	539
Frame#	Time	RPSI			LPSI			L3			STRN			T10			C7			CLAV			RBAK			LBAK			LSHO			LUPA			LAEL			LAOL			LWTS			LWPS			LFRA			LIFD			LHPS			LHTS			RSHO			RUPA			RAEL			RAOL			RWTS			RWPS			RFRA			RIFD			RHTS			RHPS			RBHD			LFHD			RFHD			LBHD			LHIP			RHIP			RASI			LASI			LKNE			LTHI			LANK			LTIP			LTOE			LMT1			LMT5			LHEE			RKNE			RTHI			RANK			RTIP			RTOE			RMT1			RMT5			RHEE			
		X1	Y1	Z1	X2	Y2	Z2	X3	Y3	Z3	X4	Y4	Z4	X5	Y5	Z5	X6	Y6	Z6	X7	Y7	Z7	X8	Y8	Z8	X9	Y9	Z9	X10	Y10	Z10	X11	Y11	Z11	X12	Y12	Z12	X13	Y13	Z13	X14	Y14	Z14	X15	Y15	Z15	X16	Y16	Z16	X17	Y17	Z17	X18	Y18	Z18	X19	Y19	Z19	X20	Y20	Z20	X21	Y21	Z21	X22	Y22	Z22	X23	Y23	Z23	X24	Y24	Z24	X25	Y25	Z25	X26	Y26	Z26	X27	Y27	Z27	X28	Y28	Z28	X29	Y29	Z29	X30	Y30	Z30	X31	Y31	Z31	X32	Y32	Z32	X33	Y33	Z33	X34	Y34	Z34	X35	Y35	Z35	X36	Y36	Z36	X37	Y37	Z37	X38	Y38	Z38	X39	Y39	Z39	X40	Y40	Z40	X41	Y41	Z41	X42	Y42	Z42	X43	Y43	Z43	X44	Y44	Z44	X45	Y45	Z45	X46	Y46	Z46	X47	Y47	Z47	X48	Y48	Z48	X49	Y49	Z49	X50	Y50	Z50	X51	Y51	Z51	X52	Y52	Z52	X53	Y53	Z53	

135	1.34	-1900.606201171875	1122.588500976562	-128.2740020751953	-1902.720581054688	1124.94384765625	-263.5717468261719	-1909.304809570312	1155.862182617188	-198.8136138916016	-1697.740112304688	1358.585205078125	-196.4884948730469	-1950.077880859375	1304.654296875	-196.7605285644531	-1917.885986328125	1598.091674804688	-207.2246551513672	-1734.278442382812	1493.83935546875	-197.4854125976562	-1971.758911132812	1412.326171875	-123.8281631469727	-1923.932861328125	1579.68603515625	-309.8766479492188	-1835.660400390625	1567.735595703125	-376.5621032714844	-1849.893432617188	1436.333984375	-448.4718322753906	-1823.985473632812	1215.855102539062	-468.3985900878906	-1895.9921875	1202.120239257812	-420.3300170898438	-1722.943237304688	961.8751220703125	-408.6463317871094	-1799.071411132812	933.68017578125	-446.5138549804688	-1803.298706054688	1100.13671875	-468.5786437988281	-1712.320922851562	768.129638671875	-382.5917663574219	-1767.848266601562	859.5682983398438	-441.9614562988281	-1703.918090820312	872.2685546875	-415.7106018066406	-1866.459838867188	1577.804809570312	-25.3047924041748	-1884.453247070312	1503.401245117188	36.58853149414062	-1893.125854492188	1207.952026367188	52.50555801391602	-1899.322509765625	1209.800537109375	-45.3262825012207	-1743.197875976562	968.2042236328125	31.36094093322754	-1818.175659179688	949.2884521484375	63.82403182983398	-1868.203491210938	1134.4482421875	65.86844635009766	-1717.479370117188	773.6845092773438	6.181235313415527	-1712.83642578125	859.01708984375	31.82249069213867	-1779.418579101562	849.2539672851562	62.866943359375	-1870.054443359375	1765.939819335938	-113.2372207641602	-1727.872314453125	1844.232666015625	-264.4741516113281	-1709.25927734375	1842.116088867188	-135.6572113037109	-1895.033935546875	1771.640869140625	-246.0450134277344	-1811.828857421875	1037.985229492188	-374.1843872070312	-1768.320678710938	1027.083862304688	-15.48255825042725	-1689.85888671875	1100.96142578125	-69.60092163085938	-1706.233642578125	1103.877807617188	-334.9462585449219	-1790.940307617188	537.1686401367188	-359.6961364746094	-1809.671142578125	684.2884521484375	-383.0462341308594	-1918.20751953125	37.74746704101562	-367.6937255859375	-1900.144653320312	293.9230041503906	-392.7756652832031	-1689.677856445312	36.96994781494141	-300.280517578125	-1772.343505859375	40.86728286743164	-270.9029235839844	-1790.703125	32.58180999755859	-389.4834289550781	-1988.866088867188	38.52702713012695	-306.2891235351562	-1774.753784179688	534.3834228515625	-53.22392654418945	-1751.384399414062	811.9017333984375	-23.57394599914551	-1911.146728515625	29.16621398925781	-60.56012725830078	-1807.353393554688	400.2079772949219	-39.72026824951172	-1682.67236328125	41.73278045654297	-115.0525131225586	-1741.3076171875	29.70281791687012	-157.3823852539062	-1777.604125976562	37.09651947021484	-40.77591705322266	-1969.336303710938	32.58836364746094	-108.0438537597656	
136	1.35	-1899.87353515625	1122.514892578125	-127.3310165405273	-1901.982788085938	1124.906494140625	-262.6353454589844	-1908.568115234375	1155.830200195312	-197.881591796875	-1696.923828125	1358.410888671875	-195.4926300048828	-1949.296508789062	1304.704956054688	-195.8421630859375	-1916.817016601562	1598.074951171875	-206.1719360351562	-1733.342651367188	1493.674926757812	-196.4493560791016	-1970.9375	1412.3427734375	-122.9484252929688	-1922.87451171875	1579.74462890625	-308.85693359375	-1834.58154296875	1567.748901367188	-375.51708984375	-1848.966552734375	1436.393432617188	-447.4664306640625	-1823.307006835938	1215.920532226562	-467.5456848144531	-1895.315551757812	1202.231201171875	-419.4730529785156	-1722.297729492188	961.8963623046875	-407.9034729003906	-1798.496948242188	933.7371826171875	-445.7371826171875	-1802.670776367188	1100.1845703125	-467.7630004882812	-1711.754272460938	768.1591186523438	-381.8851623535156	-1767.255981445312	859.6117553710938	-441.1930847167969	-1703.3369140625	872.3207397460938	-415.0021362304688	-1865.50439453125	1577.6240234375	-24.26591300964355	-1883.573852539062	1503.179077148438	37.57962036132812	-1892.446533203125	1207.76953125	53.58077239990234	-1898.605224609375	1209.606567382812	-44.26403045654297	-1742.788940429688	967.8269653320312	32.54217529296875	-1817.845947265625	949.044189453125	65.03671264648438	-1867.640625	1134.285522460938	66.97792053222656	-1717.431274414062	773.2659912109375	7.528713226318359	-1712.667724609375	858.5994873046875	33.11119842529297	-1779.25244140625	848.9663696289062	64.17301940917969	-1868.932861328125	1765.977661132812	-112.2105712890625	-1725.959594726562	1843.914916992188	-262.9037780761719	-1707.815063476562	1841.67626953125	-134.0055084228516	-1893.419067382812	1771.858764648438	-245.1101837158203	-1811.13720703125	1037.949829101562	-373.2969970703125	-1767.718505859375	1026.924072265625	-14.48770618438721	-1689.139892578125	1100.777954101562	-68.66616058349609	-1705.468994140625	1103.787109375	-334.0195617675781	-1790.171142578125	537.1021728515625	-359.2156066894531	-1808.916625976562	684.2484130859375	-382.4367980957031	-1918.198364257812	37.76309204101562	-367.6883544921875	-1899.756103515625	293.9877319335938	-392.5396423339844	-1689.668701171875	36.96612930297852	-300.31005859375	-1772.332153320312	40.8831787109375	-270.9130249023438	-1790.694580078125	32.56589126586914	-389.509033203125	-1988.868041992188	38.5843505859375	-306.2678527832031	-1774.359497070312	534.2500610351562	-52.83596801757812	-1750.62158203125	811.7944946289062	-22.9615364074707	-1911.127197265625	29.1533031463623	-60.54871368408203	-1806.982055664062	400.0101013183594	-39.42171859741211	-1682.712646484375	41.80582809448242	-115.1201248168945	-1741.33935546875	29.7013053894043	-157.4198760986328	-1777.595825195312	37.12725448608398	-40.8273811340332	-1969.350830078125	32.55381393432617	-107.9752578735352	
137	1.36	-1899.142700195312	1122.440673828125	-126.3590927124023	-1901.244750976562	1124.86474609375	-261.6620483398438	-1907.83349609375	1155.79736328125	-196.9110717773438	-1696.079833984375	1358.229370117188	-194.4720306396484	-1948.498413085938	1304.776489257812	-194.8990936279297	-1915.687866210938	1598.0712890625	-205.1110992431641	-1732.361083984375	1493.504150390625	-195.3921051025391	-1970.104125976562	1412.395629882812	-122.0530548095703	-1921.755615234375	1579.81591796875	-307.8244323730469	-1833.43115234375	1567.759521484375	-374.4621887207031	-1847.985229492188	1436.453002929688	-446.4469299316406	-1822.591064453125	1215.98876953125	-466.6792297363281	-1894.605590820312	1202.347412109375	-418.6046447753906	-1721.635131835938	961.9052734375	-407.1548461914062	-1797.90478515625	933.7946166992188	-444.9589538574219	-1802.0166015625	1100.233032226562	-466.9378662109375	-1711.165649414062	768.1837158203125	-381.1652221679688	-1766.648803710938	859.65234375	-440.4183044433594	-1702.74365234375	872.3670654296875	-414.282958984375	-1864.497680664062	1577.454956054688	-23.21468162536621	-1882.652954101562	1502.963256835938	38.58934783935547	-1891.734008789062	1207.603149414062	54.66823577880859	-1897.854370117188	1209.419189453125	-43.1825065612793	-1742.353393554688	967.4534301757812	33.7527961730957	-1817.50634765625	948.8179931640625	66.27900695800781	-1867.046875	1134.130737304688	68.11351776123047	-1717.367797851562	772.8553466796875	8.925552368164062	-1712.487426757812	858.1728515625	34.45271682739258	-1779.088989257812	848.6790161132812	65.52066802978516	-1867.770263671875	1766.000732421875	-111.1669464111328	-1724.019409179688	1843.607666015625	-261.3144836425781	-1706.350219726562	1841.254150390625	-132.3371429443359	-1891.760986328125	1772.058227539062	-244.1618041992188	-1810.462646484375	1037.913208007812	-372.3832397460938	-1767.131958007812	1026.748168945312	-13.45179843902588	-1688.434692382812	1100.585693359375	-67.68503570556641	-1704.707153320312	1103.683471679688	-333.0531311035156	-1789.323974609375	537.027099609375	-358.7231140136719	-1808.105346679688	684.2003784179688	-381.7962951660156	-1918.190185546875	37.77442169189453	-367.6929626464844	-1899.330688476562	294.0457153320312	-392.2809448242188	-1689.671997070312	36.97422027587891	-300.3527221679688	-1772.321655273438	40.9076042175293	-270.9295349121094	-1790.688110351562	32.54508209228516	-389.5426940917969	-1988.874877929688	38.64647674560547	-306.25048828125	-1773.925048828125	534.1016235351562	-52.43830871582031	-1749.855590820312	811.6890258789062	-22.3221321105957	-1911.11572265625	29.14532852172852	-60.53908157348633	-1806.569213867188	399.8044128417969	-39.12702178955078	-1682.762939453125	41.90892028808594	-115.2028579711914	-1741.368896484375	29.69545555114746	-157.4625396728516	-1777.5947265625	37.16191482543945	-40.88429641723633	-1969.36376953125	32.51856994628906	-107.9083862304688	
138	1.37	-1898.414916992188	1122.369750976562	-125.3523101806641	-1900.509765625	1124.819702148438	-260.6512756347656	-1907.098022460938	1155.76708984375	-195.8992919921875	-1695.20458984375	1358.042114257812	-193.4242553710938	-1947.680419921875	1304.865966796875	-193.921142578125	-1914.499389648438	1598.0849609375	-204.0421295166016	-1731.330200195312	1493.330688476562	-194.3107757568359	-1969.254272460938	1412.488525390625	-121.1376190185547	-1920.57275390625	1579.900634765625	-306.7757873535156	-1832.208374023438	1567.76953125	-373.3956298828125	-1846.9453125	1436.514770507812	-445.4125061035156	-1821.839111328125	1216.060546875	-465.7967834472656	-1893.863403320312	1202.470092773438	-417.7195129394531	-1720.96240234375	961.9042358398438	-406.3982543945312	-1797.296264648438	933.851806640625	-444.1769714355469	-1801.338134765625	1100.282348632812	-466.1011352539062	-1710.548095703125	768.2081298828125	-380.4256896972656	-1766.03125	859.690185546875	-439.6374206542969	-1702.141479492188	872.4037475585938	-413.5494995117188	-1863.4384765625	1577.301147460938	-22.14939117431641	-1881.6875	1502.7646484375	39.61965560913086	-1890.989013671875	1207.4609375	55.76648712158203	-1897.069702148438	1209.244873046875	-42.08157730102539	-1741.896240234375	967.0904541015625	34.9931755065918	-1817.15673828125	948.6121215820312	67.5447998046875	-1866.424438476562	1133.990478515625	69.27390289306641	-1717.280883789062	772.4591064453125	10.36606693267822	-1712.287963867188	857.7511596679688	35.83451080322266	-1778.924926757812	848.404052734375	66.90202331542969	-1866.5654296875	1766.0107421875	-110.1142578125	-1722.056274414062	1843.311767578125	-259.7076416015625	-1704.864501953125	1840.852905273438	-130.6595916748047	-1890.061157226562	1772.238037109375	-243.2031555175781	-1809.798217773438	1037.87744140625	-371.4413452148438	-1766.54296875	1026.561157226562	-12.37666893005371	-1687.741943359375	1100.38671875	-66.65695190429688	-1703.957885742188	1103.56689453125	-332.0465698242188	-1788.381225585938	536.9380493164062	-358.2078247070312	-1807.230712890625	684.1434936523438	-381.1265869140625	-1918.183959960938	37.78197860717773	-367.7068481445312	-1898.85302734375	294.1017456054688	-391.9939270019531	-1689.687255859375	36.99381637573242	-300.4071350097656	-1772.313232421875	40.93919372558594	-270.9529113769531	-1790.68359375	32.51985549926758	-389.5839233398438	-1988.884033203125	38.71002960205078	-306.2361755371094	-1773.458374023438	533.9362182617188	-52.03131103515625	-1749.071533203125	811.587158203125	-21.64973831176758	-1911.109375	29.14085960388184	-60.53144454956055	-1806.117309570312	399.6007995605469	-38.83327102661133	-1682.820922851562	42.02971649169922	-115.301383972168	-1741.393188476562	29.68360900878906	-157.5121459960938	-1777.599853515625	37.20143508911133	-40.94680404663086	-1969.374755859375	32.48429870605469	-107.8445739746094	
